<svg width="414" height="285" viewBox="0 0 414 285" fill="none" xmlns="http://www.w3.org/2000/svg">
<path d="M0.200012 142.6V0.199951H207H413.8V142.6V285H207H0.200012V142.6ZM88.4347 144.21C88.4347 144.049 88.3244 143.908 88.159 143.908C88.0211 143.908 87.8832 144.049 87.8832 144.21C87.8832 144.371 88.0211 144.512 88.159 144.512C88.3244 144.512 88.4347 144.371 88.4347 144.21ZM35.2181 144.009C35.2181 143.848 35.0251 143.707 34.8045 143.707C34.584 143.707 34.3909 143.848 34.3909 144.009C34.3909 144.17 34.584 144.311 34.8045 144.311C35.0251 144.311 35.2181 144.17 35.2181 144.009ZM258.562 104.258C258.562 104.036 258.369 103.855 258.149 103.855C257.928 103.855 257.735 104.036 257.735 104.258C257.735 104.479 257.928 104.66 258.149 104.66C258.369 104.66 258.562 104.479 258.562 104.258Z" fill="#2D3648"/>
</svg>
